<?xml version="1.0" standalone="no"?>
<!DOCTYPE svg PUBLIC "-//W3C//DTD SVG 20010904//EN"
 "http://www.w3.org/TR/2001/REC-SVG-20010904/DTD/svg10.dtd">
<svg version="1.0" xmlns="http://www.w3.org/2000/svg"
 width="500.000000pt" height="500.000000pt" viewBox="0 0 500.000000 500.000000"
 preserveAspectRatio="xMidYMid meet">

<g transform="translate(0.000000,500.000000) scale(0.100000,-0.100000)"
fill="#000000" stroke="none">
<path d="M1470 2860 l0 -300 85 0 85 0 0 300 0 300 -85 0 -85 0 0 -300z"/>
<path d="M2102 2863 l3 -298 78 -3 77 -3 -1 103 c0 57 -4 153 -7 215 -4 62 -4
109 0 105 4 -4 42 -99 85 -212 l79 -205 82 -3 c45 -2 82 1 81 5 0 4 -51 139
-112 298 l-112 290 -128 3 -127 3 2 -298z"/>
<path d="M3259 3133 c-8 -22 -113 -294 -216 -561 -4 -10 12 -12 72 -10 l77 3
84 215 84 215 -7 -217 -6 -218 86 0 87 0 0 300 0 300 -125 0 -125 0 -11 -27z"/>
<path d="M1430 2390 c-39 -39 -14 -100 42 -100 28 0 42 13 52 47 5 17 1 29
-18 48 -30 30 -49 32 -76 5z m68 -12 c17 -17 15 -53 -3 -68 -20 -17 -62 -5
-70 20 -14 44 41 80 73 48z"/>
<path d="M1678 2403 c-31 -8 -21 -43 17 -59 19 -8 35 -19 35 -24 0 -18 -32
-24 -52 -11 -16 10 -19 10 -16 -1 7 -19 62 -22 77 -4 17 20 7 33 -35 51 -42
17 -44 35 -4 35 17 0 30 -5 30 -12 0 -6 3 -8 7 -4 8 7 -24 37 -36 35 -3 -1
-14 -3 -23 -6z"/>
<path d="M1890 2350 l0 -60 43 2 42 1 -37 4 c-29 3 -38 9 -38 23 0 14 9 20 33
23 l32 4 -32 1 c-26 2 -33 6 -33 22 0 16 7 20 35 20 19 0 35 5 35 10 0 6 -18
10 -40 10 l-40 0 0 -60z"/>
<path d="M2262 2350 l1 -65 6 50 6 50 21 -29 20 -28 20 28 19 29 6 -50 c6 -50
6 -50 7 15 l1 65 -27 -32 -26 -32 -28 32 -27 32 1 -65z"/>
<path d="M2530 2390 c-39 -39 -14 -100 42 -100 28 0 42 13 52 47 5 17 1 29
-18 48 -30 30 -49 32 -76 5z m68 -12 c17 -17 15 -53 -3 -68 -20 -17 -62 -5
-70 20 -14 44 41 80 73 48z"/>
<path d="M2778 2403 c-31 -8 -21 -43 17 -59 19 -8 35 -19 35 -24 0 -18 -32
-24 -52 -11 -16 10 -19 10 -16 -1 7 -19 62 -22 77 -4 17 20 7 33 -35 51 -42
17 -44 35 -4 35 17 0 30 -5 30 -12 0 -6 3 -8 7 -4 8 7 -24 37 -36 35 -3 -1
-14 -3 -23 -6z"/>
<path d="M3002 2394 c-29 -20 -31 -79 -3 -94 28 -14 57 -12 71 5 15 18 -1 20
-18 3 -9 -9 -18 -9 -37 0 -43 20 -28 82 20 82 12 0 26 -5 33 -12 9 -9 12 -9
12 0 0 7 -12 17 -26 22 -31 12 -25 13 -52 -6z"/>
<path d="M3243 2400 c-53 -21 -31 -110 27 -110 30 0 60 30 60 60 0 39 -47 66
-87 50z m62 -49 c0 -60 -65 -70 -73 -12 -6 39 5 53 40 49 30 -3 33 -6 33 -37z"/>
<path d="M3475 2396 c-25 -18 -13 -45 25 -52 35 -8 47 -21 31 -37 -8 -8 -19
-8 -42 0 -27 10 -29 10 -18 -3 7 -9 25 -14 43 -12 25 2 31 7 31 27 0 19 -8 27
-35 36 -19 6 -35 16 -35 21 0 14 45 17 61 4 9 -9 14 -9 14 -2 0 11 -31 32 -47
32 -5 0 -18 -6 -28 -14z"/>
<path d="M3713 2400 c-53 -21 -31 -110 27 -110 30 0 60 30 60 60 0 39 -47 66
-87 50z m62 -49 c0 -60 -65 -70 -73 -12 -6 39 5 53 40 49 30 -3 33 -6 33 -37z"/>
<path d="M1262 2357 c-2 -52 -20 -69 -49 -46 -14 12 -16 12 -11 -1 6 -20 56
-26 64 -7 3 8 4 34 1 58 l-4 44 -1 -48z"/>
<path d="M1470 1914 c0 -273 -6 -309 -56 -360 -52 -51 -129 -63 -256 -38 l-28
6 0 -71 c0 -69 1 -72 28 -82 46 -19 190 -15 257 6 81 26 163 105 196 190 22
56 23 76 27 328 l4 267 -86 0 -86 0 0 -246z"/>
<path d="M2100 1945 l0 -215 80 0 80 0 0 215 0 215 -80 0 -80 0 0 -215z"/>
<path d="M2583 2128 c7 -18 44 -115 83 -216 l69 -183 68 3 69 3 79 205 c43
112 79 208 79 212 0 4 -33 8 -74 8 l-74 0 -33 -90 c-19 -49 -36 -90 -39 -90
-3 0 -20 41 -39 90 l-33 90 -84 0 -84 0 13 -32z"/>
<path d="M3350 1945 l0 -215 85 0 85 0 0 215 0 215 -85 0 -85 0 0 -215z"/>
</g>
</svg>
